<svg width="25" height="25" viewBox="0 0 25 25" fill="none" xmlns="http://www.w3.org/2000/svg">
<g clip-path="url(#clip0_40_9)">
<path d="M24.0071 12.8088C24.0071 19.4359 18.6341 24.8088 12.0071 24.8088C5.38004 24.8088 0.00708008 19.4359 0.00708008 12.8088C0.00708008 6.1818 5.38004 0.808838 12.0071 0.808838C18.6355 0.808838 24.0071 6.1818 24.0071 12.8088Z" fill="#2081E2"/>
<path d="M5.92735 13.212L5.97914 13.1307L9.10082 8.2472C9.14642 8.17568 9.2537 8.18309 9.2882 8.26074C9.80972 9.42954 10.2597 10.8831 10.0489 11.788C9.9589 12.1604 9.71234 12.6646 9.43492 13.1307C9.39916 13.1985 9.35972 13.2651 9.3178 13.3292C9.29807 13.3587 9.26479 13.376 9.22903 13.376H6.01858C5.93228 13.376 5.88175 13.2823 5.92735 13.212Z" fill="white"/>
<path d="M19.8417 14.1195V14.8925C19.8417 14.9369 19.8146 14.9764 19.7752 14.9936C19.5335 15.0972 18.7062 15.4769 18.3623 15.9553C17.4844 17.1771 16.8137 18.9241 15.3145 18.9241H9.06012C6.84338 18.9241 5.04706 17.1216 5.04706 14.8975V14.8259C5.04706 14.7668 5.09514 14.7187 5.15434 14.7187H8.64092C8.70996 14.7187 8.76052 14.7828 8.75436 14.8506C8.7297 15.0775 8.77162 15.3093 8.87887 15.5201C9.08602 15.9405 9.51506 16.2031 9.97863 16.2031H11.7047V14.8555H9.99834C9.91082 14.8555 9.85903 14.7545 9.90959 14.6829C9.92807 14.6546 9.94903 14.625 9.97122 14.5917C10.1327 14.3624 10.3633 14.0061 10.5926 13.6005C10.7492 13.3268 10.9008 13.0346 11.0229 12.7411C11.0475 12.6881 11.0673 12.6339 11.087 12.5809C11.1203 12.4872 11.1548 12.3996 11.1795 12.3121C11.2041 12.2381 11.2238 12.1605 11.2436 12.0877C11.3015 11.8387 11.3262 11.5748 11.3262 11.3011C11.3262 11.1939 11.3212 11.0817 11.3114 10.9744C11.3064 10.8573 11.2916 10.7402 11.2768 10.623C11.267 10.5195 11.2485 10.4172 11.2288 10.3099C11.2041 10.1533 11.1696 9.99798 11.1301 9.84139L11.1166 9.78222C11.087 9.67497 11.0623 9.57262 11.0278 9.46537C10.9304 9.12878 10.8182 8.80083 10.6999 8.49385C10.6567 8.37179 10.6074 8.25467 10.5581 8.13755C10.4853 7.96123 10.4114 7.80097 10.3436 7.64931C10.309 7.58027 10.2794 7.51739 10.2499 7.45329C10.2166 7.38054 10.182 7.30782 10.1475 7.23875C10.1229 7.18574 10.0945 7.13643 10.0748 7.08713L9.86396 6.69753C9.83436 6.64451 9.8837 6.58163 9.94162 6.59766L11.2608 6.95521H11.2645C11.267 6.95521 11.2682 6.95643 11.2695 6.95643L11.4433 7.00451L11.6344 7.05875L11.7047 7.07849V6.29438C11.7047 5.91587 12.008 5.60889 12.3828 5.60889C12.5702 5.60889 12.7403 5.68531 12.8623 5.80985C12.9844 5.93438 13.0608 6.10451 13.0608 6.29438V7.45822L13.2014 7.49766C13.2125 7.50137 13.2236 7.5063 13.2335 7.51369C13.268 7.53958 13.3173 7.57782 13.3802 7.62465C13.4295 7.66411 13.4825 7.71219 13.5466 7.7615C13.6736 7.86385 13.8252 7.99577 13.9917 8.14739C14.036 8.18563 14.0792 8.22507 14.1187 8.26454C14.3332 8.46425 14.5736 8.69851 14.8029 8.95742C14.867 9.03014 14.9299 9.10411 14.994 9.18179C15.0581 9.2607 15.1259 9.33838 15.1851 9.41606C15.2628 9.51961 15.3466 9.62686 15.4194 9.73907C15.4539 9.79209 15.4933 9.84632 15.5266 9.89934C15.6203 10.0411 15.7029 10.1878 15.7818 10.3345C15.8151 10.4024 15.8496 10.4763 15.8792 10.5491C15.9668 10.7451 16.0358 10.9448 16.0802 11.1446C16.0937 11.1877 16.1036 11.2346 16.1085 11.2765V11.2863C16.1233 11.3455 16.1283 11.4084 16.1332 11.4725C16.1529 11.6772 16.1431 11.8818 16.0987 12.0877C16.0802 12.1753 16.0555 12.2578 16.0259 12.3454C15.9963 12.4292 15.9668 12.5168 15.9286 12.5994C15.8546 12.7707 15.767 12.9421 15.6635 13.1024C15.6302 13.1616 15.5907 13.2244 15.5513 13.2836C15.5081 13.3465 15.4638 13.4057 15.4243 13.4636C15.37 13.5376 15.3121 13.6153 15.2529 13.6843C15.1999 13.757 15.1456 13.8298 15.0865 13.8939C15.0039 13.9913 14.925 14.0838 14.8424 14.1725C14.7931 14.2305 14.74 14.2897 14.6858 14.3427C14.6328 14.4018 14.5785 14.4549 14.5292 14.5042C14.4466 14.5868 14.3776 14.6509 14.3196 14.7039L14.184 14.8284C14.1643 14.8457 14.1384 14.8555 14.1113 14.8555H13.0608V16.2031H14.3825C14.6784 16.2031 14.9595 16.0983 15.1863 15.906C15.264 15.8382 15.6031 15.5447 16.0037 15.1021C16.0173 15.0873 16.0346 15.0762 16.0543 15.0713L19.7049 14.016C19.7727 13.9962 19.8417 14.048 19.8417 14.1195Z" fill="white"/>
</g>
<defs>
<clipPath id="clip0_40_9">
<rect width="24" height="24" fill="white" transform="translate(0.00708008 0.808838)"/>
</clipPath>
</defs>
</svg>
